<svg width="256" height="256" viewBox="0 0 256 256" fill="none" xmlns="http://www.w3.org/2000/svg">
<path d="M128 8.344L233.208 68.672V189.328L128 249.656L22.792 189.328V68.672L128 8.344Z" fill="#339933"/>
<path d="M128 8.344L233.208 68.672V189.328L128 249.656V8.344Z" fill="#2B7A2B"/>
<path d="M117.038 183.213C114.908 183.213 112.838 182.653 110.988 181.583L97.428 173.713C94.668 172.193 96.038 171.643 96.918 171.363C99.618 170.423 100.168 170.193 103.038 168.563C103.368 168.393 103.788 168.453 104.128 168.653L114.618 174.743C115.038 174.963 115.618 174.963 115.998 174.743L157.938 150.473C158.358 150.243 158.628 149.773 158.628 149.263V100.773C158.628 100.253 158.358 99.793 157.928 99.553L115.998 75.313C115.578 75.083 115.048 75.083 114.638 75.313L72.718 99.563C72.288 99.793 72.008 100.273 72.008 100.773V149.263C72.008 149.753 72.288 150.233 72.708 150.453L84.418 157.223C90.638 160.333 94.548 156.593 94.548 152.803V105.193C94.548 104.543 95.078 103.993 95.748 103.993H101.028C101.678 103.993 102.228 104.543 102.228 105.193V152.803C102.228 161.483 97.508 166.453 89.318 166.453C86.828 166.453 84.868 166.453 79.128 163.593L67.898 157.073C64.198 154.933 61.918 150.923 61.918 146.633V100.773C61.918 96.483 64.198 92.473 67.898 90.333L110.988 66.063C114.588 64.003 119.168 64.003 122.738 66.063L165.828 90.333C169.528 92.473 171.808 96.483 171.808 100.773V149.263C171.808 153.553 169.528 157.553 165.828 159.703L122.738 183.973C120.898 185.033 118.998 183.213 117.038 183.213Z" fill="white"/>
<path d="M136.648 149.063C113.848 149.063 108.728 138.573 108.728 129.763C108.728 129.113 109.268 128.563 109.928 128.563H115.348C115.938 128.563 116.438 128.993 116.498 129.573C117.478 137.073 120.818 140.843 136.648 140.843C149.248 140.843 154.628 138.043 154.628 131.393C154.628 127.543 153.148 124.703 133.798 122.773C117.708 121.153 107.868 117.853 107.868 105.333C107.868 93.743 117.548 86.803 133.268 86.803C150.878 86.803 159.918 93.113 161.138 106.303C161.178 106.643 161.058 106.983 160.828 107.243C160.598 107.483 160.278 107.623 159.938 107.623H154.488C153.928 107.623 153.438 107.223 153.348 106.673C151.888 98.713 147.498 95.023 133.268 95.023C117.478 95.023 115.728 100.553 115.728 105.023C115.728 110.293 117.898 111.823 136.178 114.323C154.228 116.803 162.498 119.943 162.498 131.073C162.468 143.553 152.258 149.063 136.648 149.063Z" fill="white"/>
</svg>
