<svg width="256" height="256" viewBox="0 0 256 256" fill="none" xmlns="http://www.w3.org/2000/svg">
<g transform="translate(48, 18) scale(0.56)">
<path d="M177.381 169.733C191.188 168.218 201.421 156.46 200.914 142.479C200.407 128.498 189.305 117.442 175.17 117.442H174.156C159.514 117.949 147.912 129.961 148.419 144.702C148.673 151.805 151.463 157.901 155.777 162.596C141.135 189.051 118.714 207.334 87.137 219.853C65.983 228.73 45.083 231.012 24.437 226.064C6.409 221.87 -6.433 212.233 -13.283 198.201C-23.516 174.013 -20.98 150.585 -7.605 128.752C-0.755 118.102 8.628 110.239 15.224 105.544C14.21 101.604 12.69 95.254 11.93 90.559C-50.527 137.141 -42.917 198.201 -20.98 223.882C-4.472 243.432 27.988 253.919 63.753 253.919C73.733 253.919 83.966 252.905 94.199 250.623C136.475 242.507 168.812 218.066 187.939 181.287C184.896 178.244 181.346 174.694 177.381 169.733Z" fill="#764ABC"/>
<path d="M248.663 126.412C225.482 99.4176 190.224 84.3726 149.94 84.3726H145.215C142.679 78.5296 136.836 74.8426 130.233 74.8426H129.22C114.577 75.3496 102.976 87.3616 103.483 102.103C103.99 116.084 115.091 127.14 129.22 127.14H130.233C137.083 126.633 143.186 122.439 145.722 116.596H151.058C176.485 116.596 200.426 124.459 221.833 139.504C238.088 150.567 249.696 164.598 256.039 181.157C261.629 195.442 261.375 209.474 255.532 221.486C246.059 239.262 230.565 249.242 210.679 249.242C198.571 249.242 186.969 245.808 181.126 243.019C177.692 245.808 171.849 250.249 168.162 252.532C180.777 259.128 193.645 262.562 206.006 262.562C235.816 262.562 258.237 245.555 266.86 228.548C276.079 210.488 275.319 179.671 248.663 126.412Z" fill="#764ABC"/>
<path d="M72.6237 192.692C73.1307 206.673 84.2327 217.729 98.3677 217.729H99.3817C114.024 217.222 125.626 205.21 125.119 190.469C124.612 176.488 113.51 165.432 99.3817 165.432H98.3677C97.3537 165.432 95.8327 165.432 94.8187 165.939C77.0437 137.648 69.6877 106.831 71.8167 73.4876C73.1307 50.3076 80.4867 30.1676 94.8187 13.1606C106.674 -0.871402 126.306 -7.72141 139.428 -8.22841C170.758 -8.73541 184.893 29.6606 185.654 43.6926C189.594 44.7066 196.194 46.7336 200.134 48.0006C195.947 -5.44641 162.209 -21.1944 140.272 -21.1944C120.132 -21.1944 98.4517 -6.65641 86.3467 14.1746C69.8417 41.6296 62.4857 72.4466 65.7817 105.817C68.0637 130.231 75.9267 152.172 89.0007 171.215C85.7977 175.662 83.9307 182.258 84.4377 189.871L72.6237 192.692Z" fill="#764ABC"/>
</g>
</svg>
